<mxfile host="app.diagrams.net" modified="2023-12-05T18:29:55.823Z" agent="Mozilla/5.0 (X11; Linux x86_64) AppleWebKit/537.36 (KHTML, like Gecko) Chrome/119.0.0.0 Safari/537.36" etag="5stiOhL7idFVQdp3tyJi" version="22.1.5" type="device">
  <diagram name="Page-1" id="tZobZ3ZP5NtRP8bg_H2e">
    <mxGraphModel dx="1389" dy="702" grid="1" gridSize="10" guides="1" tooltips="1" connect="1" arrows="1" fold="1" page="1" pageScale="1" pageWidth="850" pageHeight="1100" math="0" shadow="0">
      <root>
        <mxCell id="0" />
        <mxCell id="1" parent="0" />
        <mxCell id="sej1MQHYsESvAXhQvOe9-5" style="rounded=0;orthogonalLoop=1;jettySize=auto;html=1;exitX=1;exitY=0;exitDx=0;exitDy=0;entryX=0;entryY=1;entryDx=0;entryDy=0;strokeWidth=4;" edge="1" parent="1" source="sej1MQHYsESvAXhQvOe9-2" target="sej1MQHYsESvAXhQvOe9-3">
          <mxGeometry relative="1" as="geometry" />
        </mxCell>
        <mxCell id="sej1MQHYsESvAXhQvOe9-6" style="rounded=0;orthogonalLoop=1;jettySize=auto;html=1;exitX=1;exitY=1;exitDx=0;exitDy=0;entryX=0;entryY=0;entryDx=0;entryDy=0;strokeWidth=4;" edge="1" parent="1" source="sej1MQHYsESvAXhQvOe9-2" target="sej1MQHYsESvAXhQvOe9-4">
          <mxGeometry relative="1" as="geometry" />
        </mxCell>
        <mxCell id="sej1MQHYsESvAXhQvOe9-19" style="edgeStyle=orthogonalEdgeStyle;rounded=0;orthogonalLoop=1;jettySize=auto;html=1;exitX=0.5;exitY=1;exitDx=0;exitDy=0;entryX=0.5;entryY=1;entryDx=0;entryDy=0;curved=1;dashed=1;strokeWidth=4;strokeColor=#00CC00;" edge="1" parent="1" source="sej1MQHYsESvAXhQvOe9-2" target="sej1MQHYsESvAXhQvOe9-7">
          <mxGeometry relative="1" as="geometry">
            <Array as="points">
              <mxPoint x="220" y="640" />
              <mxPoint x="630" y="640" />
            </Array>
          </mxGeometry>
        </mxCell>
        <mxCell id="sej1MQHYsESvAXhQvOe9-2" value="&lt;span style=&quot;font-size: 18px;&quot;&gt;&lt;b&gt;1&lt;br&gt;&lt;/b&gt;&lt;/span&gt;" style="ellipse;whiteSpace=wrap;html=1;aspect=fixed;strokeWidth=4;fillColor=#f8cecc;strokeColor=#b85450;" vertex="1" parent="1">
          <mxGeometry x="180" y="290" width="80" height="80" as="geometry" />
        </mxCell>
        <mxCell id="sej1MQHYsESvAXhQvOe9-9" style="rounded=0;orthogonalLoop=1;jettySize=auto;html=1;exitX=1;exitY=0.5;exitDx=0;exitDy=0;entryX=0.5;entryY=0;entryDx=0;entryDy=0;strokeWidth=4;" edge="1" parent="1" source="sej1MQHYsESvAXhQvOe9-3" target="sej1MQHYsESvAXhQvOe9-7">
          <mxGeometry relative="1" as="geometry" />
        </mxCell>
        <mxCell id="sej1MQHYsESvAXhQvOe9-3" value="3" style="ellipse;whiteSpace=wrap;html=1;aspect=fixed;fontSize=18;fontStyle=1;strokeWidth=4;fillColor=#d5e8d4;strokeColor=#82b366;" vertex="1" parent="1">
          <mxGeometry x="385" y="110" width="80" height="80" as="geometry" />
        </mxCell>
        <mxCell id="sej1MQHYsESvAXhQvOe9-8" style="rounded=0;orthogonalLoop=1;jettySize=auto;html=1;exitX=1;exitY=0;exitDx=0;exitDy=0;entryX=0;entryY=1;entryDx=0;entryDy=0;strokeWidth=4;" edge="1" parent="1" source="sej1MQHYsESvAXhQvOe9-4" target="sej1MQHYsESvAXhQvOe9-7">
          <mxGeometry relative="1" as="geometry" />
        </mxCell>
        <mxCell id="sej1MQHYsESvAXhQvOe9-10" style="edgeStyle=orthogonalEdgeStyle;rounded=0;orthogonalLoop=1;jettySize=auto;html=1;exitX=0.5;exitY=0;exitDx=0;exitDy=0;strokeWidth=4;" edge="1" parent="1" source="sej1MQHYsESvAXhQvOe9-4" target="sej1MQHYsESvAXhQvOe9-3">
          <mxGeometry relative="1" as="geometry" />
        </mxCell>
        <mxCell id="sej1MQHYsESvAXhQvOe9-20" style="edgeStyle=orthogonalEdgeStyle;rounded=0;orthogonalLoop=1;jettySize=auto;html=1;exitX=1;exitY=0.5;exitDx=0;exitDy=0;entryX=1;entryY=0.5;entryDx=0;entryDy=0;strokeColor=#00CC00;strokeWidth=4;curved=1;dashed=1;" edge="1" parent="1" source="sej1MQHYsESvAXhQvOe9-4" target="sej1MQHYsESvAXhQvOe9-3">
          <mxGeometry relative="1" as="geometry">
            <Array as="points">
              <mxPoint x="720" y="510" />
              <mxPoint x="720" y="150" />
            </Array>
          </mxGeometry>
        </mxCell>
        <mxCell id="sej1MQHYsESvAXhQvOe9-4" value="2" style="ellipse;whiteSpace=wrap;html=1;aspect=fixed;fontSize=18;fontStyle=1;strokeWidth=4;fillColor=#f8cecc;strokeColor=#b85450;" vertex="1" parent="1">
          <mxGeometry x="385" y="470" width="80" height="80" as="geometry" />
        </mxCell>
        <mxCell id="sej1MQHYsESvAXhQvOe9-12" style="rounded=0;orthogonalLoop=1;jettySize=auto;html=1;exitX=0;exitY=0;exitDx=0;exitDy=0;entryX=1;entryY=1;entryDx=0;entryDy=0;strokeWidth=4;" edge="1" parent="1" source="sej1MQHYsESvAXhQvOe9-7" target="sej1MQHYsESvAXhQvOe9-3">
          <mxGeometry relative="1" as="geometry" />
        </mxCell>
        <mxCell id="sej1MQHYsESvAXhQvOe9-7" value="4" style="ellipse;whiteSpace=wrap;html=1;aspect=fixed;fontSize=18;fontStyle=1;strokeWidth=4;fillColor=#d5e8d4;strokeColor=#82b366;" vertex="1" parent="1">
          <mxGeometry x="590" y="290" width="80" height="80" as="geometry" />
        </mxCell>
        <mxCell id="sej1MQHYsESvAXhQvOe9-13" value="3" style="text;html=1;strokeColor=none;fillColor=none;align=center;verticalAlign=middle;whiteSpace=wrap;rounded=0;fontStyle=1;fontSize=18;fontColor=#FF1947;" vertex="1" parent="1">
          <mxGeometry x="260" y="210" width="60" height="30" as="geometry" />
        </mxCell>
        <mxCell id="sej1MQHYsESvAXhQvOe9-14" value="5" style="text;html=1;strokeColor=none;fillColor=none;align=center;verticalAlign=middle;whiteSpace=wrap;rounded=0;fontStyle=1;fontSize=18;fontColor=#FF1947;" vertex="1" parent="1">
          <mxGeometry x="540" y="180" width="60" height="30" as="geometry" />
        </mxCell>
        <mxCell id="sej1MQHYsESvAXhQvOe9-15" value="1" style="text;html=1;strokeColor=none;fillColor=none;align=center;verticalAlign=middle;whiteSpace=wrap;rounded=0;fontStyle=1;fontSize=18;fontColor=#FF1947;" vertex="1" parent="1">
          <mxGeometry x="500" y="430" width="60" height="30" as="geometry" />
        </mxCell>
        <mxCell id="sej1MQHYsESvAXhQvOe9-16" value="2" style="text;html=1;strokeColor=none;fillColor=none;align=center;verticalAlign=middle;whiteSpace=wrap;rounded=0;fontStyle=1;fontSize=18;fontColor=#FF1947;" vertex="1" parent="1">
          <mxGeometry x="260" y="420" width="60" height="30" as="geometry" />
        </mxCell>
        <mxCell id="sej1MQHYsESvAXhQvOe9-17" value="1" style="text;html=1;strokeColor=none;fillColor=none;align=center;verticalAlign=middle;whiteSpace=wrap;rounded=0;fontStyle=1;fontSize=18;fontColor=#FF1947;" vertex="1" parent="1">
          <mxGeometry x="490" y="260" width="60" height="30" as="geometry" />
        </mxCell>
        <mxCell id="sej1MQHYsESvAXhQvOe9-18" value="10" style="text;html=1;strokeColor=none;fillColor=none;align=center;verticalAlign=middle;whiteSpace=wrap;rounded=0;fontStyle=1;fontSize=18;fontColor=#FF1947;" vertex="1" parent="1">
          <mxGeometry x="365" y="315" width="60" height="30" as="geometry" />
        </mxCell>
        <mxCell id="sej1MQHYsESvAXhQvOe9-21" value="&lt;font color=&quot;#00cc00&quot;&gt;1-&amp;gt;4&lt;/font&gt;" style="text;html=1;strokeColor=none;fillColor=none;align=center;verticalAlign=middle;whiteSpace=wrap;rounded=0;fontStyle=1;fontSize=18;fontColor=#FF1947;" vertex="1" parent="1">
          <mxGeometry x="395" y="650" width="60" height="30" as="geometry" />
        </mxCell>
        <mxCell id="sej1MQHYsESvAXhQvOe9-22" value="&lt;font color=&quot;#00cc00&quot;&gt;2-&amp;gt;3&lt;/font&gt;" style="text;html=1;strokeColor=none;fillColor=none;align=center;verticalAlign=middle;whiteSpace=wrap;rounded=0;fontStyle=1;fontSize=18;fontColor=#FF1947;" vertex="1" parent="1">
          <mxGeometry x="730" y="310" width="60" height="30" as="geometry" />
        </mxCell>
        <mxCell id="sej1MQHYsESvAXhQvOe9-23" value="100: $1,000 p/m&lt;br style=&quot;font-size: 14px;&quot;&gt;20: $5,000 p/m" style="rounded=0;whiteSpace=wrap;html=1;fontSize=14;fontStyle=0" vertex="1" parent="1">
          <mxGeometry x="50" y="300" width="120" height="60" as="geometry" />
        </mxCell>
        <mxCell id="sej1MQHYsESvAXhQvOe9-24" value="20: $1,000 p/m&lt;br&gt;100: $5,000 p/m" style="rounded=0;whiteSpace=wrap;html=1;fontSize=14;fontStyle=0" vertex="1" parent="1">
          <mxGeometry x="365" y="560" width="120" height="60" as="geometry" />
        </mxCell>
      </root>
    </mxGraphModel>
  </diagram>
</mxfile>
